<svg preserveAspectRatio="xMidYMid meet" id="comp-jz9zmb6dsvgcontent" data-bbox="0 -0.007 495.444 100.007" viewBox="0 -0.007 495.444 100.007" xmlns="http://www.w3.org/2000/svg" data-type="color" role="img">
    <g>
        <g>
            <path d="M65.384 98.214l-3.708-11.675h-34.2l-3.712 11.675H0L34.341 2.06h20.467L89.56 98.214zM44.643 29.533L32.83 69.094h23.351z" fill="#000000" data-color="1"></path>
            <path d="M92.207 2.06h22.527v96.154H92.207z" fill="#000000" data-color="1"></path>
            <path d="M120.806 78.572a44.2 44.2 0 0 1 5.288-13.462 38.917 38.917 0 0 1 8.036-9.341 84.606 84.606 0 0 1 10.233-7.28q4.257-2.472 7.9-4.739a53.672 53.672 0 0 0 6.388-4.6 18.944 18.944 0 0 0 4.325-5.15 12.843 12.843 0 0 0 1.58-6.387q0-5.769-3.16-8.311a12.1 12.1 0 0 0-7.829-2.541 12.388 12.388 0 0 0-8.723 3.228q-3.5 3.229-3.5 10.783h-22.118a32.449 32.449 0 0 1 2.267-12.225 27.028 27.028 0 0 1 6.661-9.753 31.329 31.329 0 0 1 10.715-6.456A41.883 41.883 0 0 1 153.429 0 45.32 45.32 0 0 1 166 1.717a31 31 0 0 1 10.508 5.22A24.864 24.864 0 0 1 183.717 16a29.948 29.948 0 0 1 2.683 13.121 23.194 23.194 0 0 1-2.61 10.989 37.345 37.345 0 0 1-6.39 8.79 52.422 52.422 0 0 1-8.173 6.8q-4.4 2.956-7.967 5.014-4.946 3.3-8.174 5.7a38.8 38.8 0 0 0-5.15 4.464 11.991 11.991 0 0 0-2.679 4.259 15.608 15.608 0 0 0-.756 5.082h41.209v17.995h-66.758a88.217 88.217 0 0 1 1.854-19.642z" fill="#000000" data-color="1"></path>
            <path d="M189.959 18.956a52.462 52.462 0 0 0 11.47-1.03 16.548 16.548 0 0 0 6.937-3.091 10.7 10.7 0 0 0 3.434-5.22 26.155 26.155 0 0 0 .961-7.555H232.4v96.154h-22.66v-63.6h-19.781z" fill="#000000" data-color="1"></path>
            <path d="M257.9 2.06h21.017v96.154H257.9z" fill="#e91e63" data-color="2"></path>
            <path d="M356.511 31.954v66.209h-21.017v-9.34a17.184 17.184 0 0 1-3.3 4.327 21.3 21.3 0 0 1-4.739 3.433 28.774 28.774 0 0 1-5.838 2.336 23.162 23.162 0 0 1-6.319.893 31.7 31.7 0 0 1-13.118-2.679 31.039 31.039 0 0 1-10.233-7.28 32.234 32.234 0 0 1-6.593-10.989 39.847 39.847 0 0 1-2.336-13.805 39.851 39.851 0 0 1 2.336-13.8 32.253 32.253 0 0 1 6.593-10.989 31.068 31.068 0 0 1 10.233-7.28 31.7 31.7 0 0 1 13.12-2.684 23.2 23.2 0 0 1 6.319.893 26.63 26.63 0 0 1 5.838 2.4 21.846 21.846 0 0 1 4.739 3.571 19.845 19.845 0 0 1 3.3 4.258v-9.474zm-36.813 50a14.813 14.813 0 0 0 6.456-1.373 15.753 15.753 0 0 0 4.945-3.64 16.6 16.6 0 0 0 3.228-5.357 18.335 18.335 0 0 0 1.167-6.525 17.731 17.731 0 0 0-4.4-11.814 15.306 15.306 0 0 0-4.945-3.708 15.854 15.854 0 0 0-12.912 0 15.306 15.306 0 0 0-4.945 3.708 17.731 17.731 0 0 0-4.4 11.814 18.291 18.291 0 0 0 1.167 6.525 16.551 16.551 0 0 0 3.228 5.357 15.753 15.753 0 0 0 4.945 3.64 14.806 14.806 0 0 0 6.468 1.373z" fill="#e91e63" data-color="2"></path>
            <path d="M382.048 98.214h-21.016V2.06h21.016v39.423a19.819 19.819 0 0 1 3.3-4.258 21.145 21.145 0 0 1 4.808-3.571 28.478 28.478 0 0 1 5.838-2.4 22.938 22.938 0 0 1 6.387-.893 31.705 31.705 0 0 1 13.119 2.675 31.089 31.089 0 0 1 10.233 7.28 32.348 32.348 0 0 1 6.593 10.989 39.894 39.894 0 0 1 2.336 13.805 39.894 39.894 0 0 1-2.336 13.805 32.329 32.329 0 0 1-6.597 10.985 31.06 31.06 0 0 1-10.233 7.28 31.705 31.705 0 0 1-13.118 2.679 22.9 22.9 0 0 1-6.387-.893 31.043 31.043 0 0 1-5.838-2.336 20.653 20.653 0 0 1-4.808-3.433 17.165 17.165 0 0 1-3.3-4.327zm15.934-16.209a14.494 14.494 0 0 0 6.319-1.373 15.74 15.74 0 0 0 4.945-3.641 16.57 16.57 0 0 0 3.228-5.356 18.339 18.339 0 0 0 1.168-6.525 17.738 17.738 0 0 0-4.4-11.814 15.306 15.306 0 0 0-4.945-3.708 14.523 14.523 0 0 0-6.319-1.374 15.288 15.288 0 0 0-6.525 1.374 15.078 15.078 0 0 0-5.013 3.708 17.738 17.738 0 0 0-4.4 11.814 18.3 18.3 0 0 0 1.168 6.525 16.535 16.535 0 0 0 3.228 5.356 15.5 15.5 0 0 0 5.013 3.641 15.258 15.258 0 0 0 6.533 1.373z" fill="#e91e63" data-color="2"></path>
            <path d="M474.143 59.2q4.394 1.236 8.241 2.678a27.665 27.665 0 0 1 6.732 3.572 16.019 16.019 0 0 1 4.6 5.289 16.57 16.57 0 0 1 1.717 7.967 19.651 19.651 0 0 1-2.336 9.958 18.529 18.529 0 0 1-6.455 6.594A28.967 28.967 0 0 1 477.1 98.9a58.555 58.555 0 0 1-11.607 1.1q-14.149 0-22.321-6.181C437.719 89.7 436.1 83.791 436.1 76.1h19.5q0 5.223 2.953 7.486a12.167 12.167 0 0 0 7.624 2.266 12.04 12.04 0 0 0 6.25-1.441 5.1 5.1 0 0 0 2.4-4.739 4.5 4.5 0 0 0-1.03-3.091 9.987 9.987 0 0 0-3.159-2.2 39.327 39.327 0 0 0-5.5-2.06q-3.366-1.03-8.035-2.541-4.122-1.238-7.829-2.679a28.446 28.446 0 0 1-6.526-3.5 14.909 14.909 0 0 1-4.464-5.22 17.122 17.122 0 0 1-1.648-7.967q0-10.3 7.9-15.247T465.9 30.22a41.751 41.751 0 0 1 12.569 1.717 25.108 25.108 0 0 1 8.928 4.738 19.7 19.7 0 0 1 5.289 7.144 21.9 21.9 0 0 1 1.785 8.791H473.73a8.974 8.974 0 0 0-2.128-6.387q-2.131-2.268-6.525-2.267a10.235 10.235 0 0 0-5.5 1.442 4.876 4.876 0 0 0-2.335 4.465 4.129 4.129 0 0 0 1.1 2.953 10.073 10.073 0 0 0 3.228 2.129 44.244 44.244 0 0 0 5.288 1.923q3.163.963 7.285 2.332z" fill="#e91e63" data-color="2"></path>
        </g>
    </g>
</svg>
