<svg width="101" height="32" viewBox="0 0 101 32" fill="none" xmlns="http://www.w3.org/2000/svg">
<path d="M0 12.7892C0 8.59837 0 4.43401 0 0.248186C0.101656 0.23809 0.184487 0.221685 0.268574 0.221685C1.76455 0.222947 3.26053 0.214114 4.75651 0.233043C5.45807 0.241876 6.14331 0.38195 6.78462 0.684813C7.93296 1.22871 8.50399 2.15875 8.56424 3.42068C8.58557 3.88759 8.54165 4.34567 8.37724 4.78735C8.1551 5.38298 7.79115 5.85872 7.22639 6.16411C7.17242 6.19314 7.12222 6.22973 7.07202 6.2638C7.06449 6.26885 7.06323 6.28526 7.04943 6.32816C7.12473 6.37107 7.2038 6.41902 7.28537 6.46193C8.42242 7.06134 8.97588 8.01789 8.97337 9.2937C8.97212 9.64073 8.92317 9.99659 8.83406 10.331C8.57804 11.3002 7.95806 11.9677 7.05194 12.3766C6.38051 12.6807 5.6664 12.7968 4.94226 12.8056C3.35968 12.8258 1.77585 12.8132 0.193273 12.812C0.141817 12.812 0.0941263 12.8006 0 12.7892ZM2.00677 10.9531C2.08458 10.9708 2.11972 10.9872 2.15612 10.9872C3.14005 10.9847 4.12524 11.0023 5.10792 10.9658C5.42042 10.9544 5.74923 10.8471 6.03161 10.7058C6.70681 10.3689 6.96911 9.76692 6.9415 9.03248C6.91514 8.32453 6.60892 7.76802 5.94125 7.49419C5.61495 7.36042 5.24723 7.27966 4.89457 7.26704C4.03613 7.23549 3.17645 7.25568 2.31676 7.25694C2.22138 7.25694 2.126 7.27461 2.00803 7.28723C2.00677 8.51761 2.00677 9.72402 2.00677 10.9531ZM2.00552 5.46248C2.06576 5.48772 2.09964 5.51548 2.13353 5.51422C3.10366 5.50286 4.07629 5.5281 5.04266 5.46248C5.62875 5.4221 6.14582 5.147 6.4169 4.56272C6.91765 3.47999 6.40059 2.39851 5.25099 2.1171C5.1782 2.09944 5.10541 2.07672 5.03136 2.07546C4.07378 2.05401 3.11621 2.03508 2.15863 2.01867C2.11345 2.01741 2.06827 2.04896 2.00552 2.07167C2.00552 3.19858 2.00552 4.31917 2.00552 5.46248Z" fill="#8E8E8E"/>
<path d="M54.8731 19.4148C54.9911 19.4148 55.1141 19.4148 55.2371 19.4148C56.659 19.4148 58.0809 19.4073 59.5016 19.4174C60.2257 19.4224 60.9449 19.4994 61.6402 19.7227C63.3696 20.2793 64.5744 21.4049 65.1617 23.1337C65.7767 24.9421 65.7516 26.7618 64.9923 28.5247C64.2129 30.3356 62.7772 31.3413 60.8708 31.6896C60.4567 31.7653 60.0287 31.7931 59.607 31.7969C58.1474 31.8095 56.6891 31.8019 55.2295 31.8007C55.1065 31.8007 54.9835 31.7893 54.8869 31.7855C54.853 31.7527 54.843 31.7451 54.8355 31.7363C54.8279 31.7262 54.8179 31.7161 54.8154 31.7048C54.8053 31.6555 54.7903 31.6076 54.7903 31.5584C54.789 27.5997 54.789 23.641 54.789 19.6824C54.789 19.6331 54.7953 19.5827 54.8053 19.5335C54.8104 19.512 54.8279 19.4918 54.8731 19.4148ZM56.8598 29.9381C56.9476 29.9595 56.9953 29.9822 57.0418 29.981C58.0759 29.9658 59.1151 30.0075 60.1429 29.9153C61.6941 29.7753 62.7446 28.9184 63.2353 27.4192C63.5829 26.358 63.5942 25.2727 63.3482 24.1925C63.0772 23.005 62.4421 22.0863 61.2963 21.5866C60.7993 21.3696 60.276 21.2535 59.735 21.2484C58.8741 21.2396 58.0144 21.2434 57.1535 21.2446C57.0593 21.2446 56.9652 21.2686 56.8611 21.2838C56.8598 24.1774 56.8598 27.0432 56.8598 29.9381Z" fill="#8E8E8E"/>
<path d="M84.002 19.4363C84.1162 19.43 84.238 19.4161 84.3597 19.4161C85.7189 19.4148 87.0781 19.4047 88.4373 19.4199C89.2769 19.4287 90.1027 19.541 90.8632 19.9385C91.9086 20.4849 92.4734 21.362 92.6152 22.5255C92.6855 23.1009 92.6629 23.6751 92.5474 24.2442C92.2964 25.4885 91.5371 26.2456 90.3336 26.5763C90.1704 26.6217 90.0048 26.6583 89.7663 26.7176C91.246 28.4124 92.688 30.063 94.1689 31.7603C94.0208 31.7805 93.9305 31.8019 93.8388 31.8032C93.2904 31.807 92.7407 31.7956 92.1935 31.8095C91.9588 31.8158 91.8032 31.7325 91.6514 31.5546C90.3863 30.0705 89.1062 28.5979 87.8474 27.1101C87.624 26.8463 87.3943 26.7176 87.0492 26.7504C86.7191 26.782 86.384 26.7668 86.0163 26.7731C86.0163 28.4578 86.0163 30.0945 86.0163 31.7174C85.7164 31.8208 84.5053 31.8436 84.0221 31.7691C83.9443 31.5066 83.9205 19.941 84.002 19.4363ZM86.0402 21.2484C86.0402 22.5116 86.0402 23.7559 86.0402 24.9888C86.0879 25.0115 86.1092 25.0304 86.1305 25.0304C87.0266 25.0317 87.9265 25.0758 88.8188 25.019C89.5969 24.9698 90.2294 24.6051 90.5093 23.8114C90.9398 22.5835 90.2244 21.3759 88.9355 21.2572C88.0218 21.1727 87.0956 21.2143 86.1757 21.2017C86.1406 21.2005 86.1067 21.2244 86.0402 21.2484Z" fill="#8E8E8E"/>
<path d="M59.4489 8.18104C59.4489 5.54487 59.4489 2.9087 59.4489 0.247287C60.1178 0.247287 60.7353 0.247287 61.4017 0.247287C61.4155 0.394932 61.4431 0.55015 61.4431 0.705367C61.4457 2.58438 61.4457 4.46339 61.4457 6.34241C61.4457 8.35897 61.4457 10.3768 61.4457 12.3934C61.4457 12.5397 61.4457 12.6874 61.4457 12.8338C61.4193 12.8464 61.3917 12.8577 61.3653 12.8704C60.6362 12.2192 59.9572 11.5125 59.2531 10.8336C58.5428 10.1484 57.8387 9.45559 57.1322 8.76657C56.4344 8.08513 55.7378 7.40369 55.0401 6.72351C54.3347 6.03576 53.6294 5.34927 52.9141 4.65394C52.7584 4.80033 52.8137 4.95807 52.8137 5.09562C52.8099 6.90018 52.8111 8.70347 52.8111 10.508C52.8111 11.1213 52.8111 11.7359 52.8111 12.3492C52.8111 12.4855 52.8111 12.6205 52.8111 12.7858C52.1472 12.7858 51.5172 12.7858 50.8897 12.7858C50.8797 12.777 50.8696 12.7682 50.8621 12.7593C50.8546 12.7505 50.8433 12.7404 50.842 12.729C50.8332 12.6546 50.8194 12.5801 50.8194 12.5069C50.8194 8.41071 50.8219 4.31322 50.8245 0.217C50.8245 0.198071 50.8483 0.179143 50.8872 0.121094C53.7097 2.82667 56.5272 5.52594 59.3448 8.22647C59.3786 8.21132 59.4138 8.19618 59.4489 8.18104Z" fill="#8E8E8E"/>
<path d="M18.5604 23.8453C18.5604 26.4713 18.5604 29.0974 18.5604 31.7702C17.8915 31.832 17.2653 31.7929 16.6528 31.7979C16.5612 31.4711 16.5261 20.12 16.6039 19.3907C16.7545 19.3642 16.816 19.4967 16.8975 19.5736C19.0022 21.5687 21.1031 23.5676 23.204 25.5653C23.7562 26.0902 24.3084 26.6164 24.8631 27.1401C24.9234 27.1969 24.9949 27.2424 25.1179 27.337C25.1555 26.7603 25.133 26.2417 25.1367 25.7255C25.1405 25.2119 25.138 24.6983 25.138 24.1847C25.138 23.6585 25.138 23.1323 25.138 22.606C25.138 22.0924 25.138 21.5788 25.138 21.0652C25.138 20.5403 25.138 20.0153 25.138 19.4992C25.4354 19.3932 26.7281 19.3818 27.0971 19.479C27.0971 23.6017 27.0971 27.7295 27.0971 31.938C26.1094 31.0168 25.1932 30.1082 24.2632 29.2135C23.327 28.3125 22.3933 27.4064 21.4595 26.5029C20.527 25.6019 19.5958 24.7008 18.6633 23.7998C18.6295 23.8124 18.5956 23.8289 18.5604 23.8453Z" fill="#8E8E8E"/>
<path d="M13.6182 0.241945C14.3035 0.241945 14.9586 0.241945 15.6677 0.241945C15.6677 0.398424 15.6677 0.543546 15.6677 0.688668C15.6677 2.94247 15.6689 5.19754 15.6664 7.45135C15.6652 8.06843 15.7116 8.67668 15.8986 9.26853C16.2714 10.4497 17.1411 11.1097 18.371 11.1273C18.7048 11.1324 19.0449 11.116 19.3738 11.0567C20.3012 10.8901 20.9074 10.3248 21.2362 9.45024C21.4634 8.84452 21.5324 8.21103 21.5336 7.56871C21.5361 5.28966 21.5349 3.00936 21.5349 0.730312C21.5349 0.581404 21.5349 0.432496 21.5349 0.29116C21.821 0.204087 23.1175 0.18642 23.5818 0.262136C23.5881 0.376971 23.6006 0.498117 23.6006 0.619262C23.6019 3.07371 23.6032 5.52817 23.6006 7.98388C23.5994 8.6262 23.5065 9.25591 23.3107 9.8692C22.8238 11.3974 21.8047 12.383 20.2686 12.7981C19.1667 13.096 18.0434 13.0997 16.9415 12.7994C15.2171 12.3287 14.1805 11.169 13.7764 9.44015C13.6697 8.9808 13.612 8.50001 13.6082 8.02805C13.5919 5.53574 13.5994 3.04343 13.6007 0.551118C13.6019 0.464045 13.6107 0.376971 13.6182 0.241945Z" fill="#8E8E8E"/>
<path d="M69.2267 6.95923C69.2267 8.30571 69.2267 9.58909 69.2267 10.9103C69.3974 10.9217 69.5555 10.9419 69.7124 10.9431C71.2222 10.9457 72.7307 10.9444 74.2405 10.9457C74.3873 10.9457 74.5329 10.9583 74.7011 10.9671C74.7011 11.5817 74.7011 12.1647 74.7011 12.7502C74.4476 12.8297 67.8048 12.8587 67.2463 12.7818C67.166 12.5117 67.1309 0.968851 67.2087 0.28741C67.4672 0.205384 74.0209 0.171312 74.7149 0.254599C74.7362 0.840134 74.7237 1.43324 74.7237 2.07052C73.7824 2.07052 72.875 2.07052 71.9689 2.07052C71.0716 2.07052 70.1755 2.07052 69.2882 2.07052C69.1828 2.3494 69.1514 4.53001 69.2418 5.11934C69.3874 5.13069 69.543 5.15341 69.6986 5.15341C71.0088 5.15593 72.3178 5.15467 73.6281 5.15467C73.7761 5.15467 73.9242 5.15467 74.0585 5.15467C74.1702 5.46637 74.1828 6.55163 74.0824 6.95797C72.4885 6.95923 70.8846 6.95923 69.2267 6.95923Z" fill="#8E8E8E"/>
<path d="M72.1082 24.2845C72.9704 24.2845 73.7661 24.2845 74.5631 24.2845C75.36 24.2845 76.1582 24.2845 76.9464 24.2845C77.0443 24.5646 77.0618 25.5893 76.9765 26.0499C75.3839 26.0499 73.7812 26.0499 72.1948 26.0499C72.0881 26.354 72.0681 29.5278 72.1685 29.9846C73.0482 29.9884 73.9418 29.9859 74.8354 29.9871C75.7315 29.9871 76.6263 29.9871 77.5726 29.9871C77.5864 30.5916 77.5864 31.1595 77.5714 31.7198C77.2802 31.8169 70.6562 31.846 70.1629 31.7614C70.0713 31.4901 70.05 19.8652 70.1479 19.4399C72.604 19.4399 75.0663 19.4399 77.5551 19.4399C77.5551 20.0406 77.5551 20.6211 77.5551 21.2395C75.7428 21.2395 73.9531 21.2395 72.1082 21.2395C72.1045 22.2604 72.1057 23.2421 72.1082 24.2845Z" fill="#8E8E8E"/>
<path d="M100.345 3.12803C100.163 3.00941 100.05 2.93875 99.9396 2.86429C98.8527 2.1248 97.663 1.75127 96.3414 1.84718C95.9511 1.8762 95.5771 1.96327 95.2333 2.1513C94.2958 2.66617 94.2092 3.93188 95.0814 4.55023C95.3324 4.72816 95.6236 4.8594 95.911 4.97171C96.6539 5.25943 97.4069 5.52317 98.1537 5.79954C98.682 5.99514 99.1878 6.23238 99.6459 6.56679C100.511 7.20028 100.95 8.06218 100.993 9.12724C101.005 9.43894 101.004 9.75695 100.955 10.0636C100.797 11.0517 100.255 11.7849 99.4087 12.2997C98.7774 12.6834 98.0846 12.8903 97.3605 12.9559C95.9486 13.0847 94.5744 12.9244 93.2754 12.3073C92.5701 11.9716 92.5701 11.9716 92.5701 11.1993C92.5701 10.7614 92.5726 10.3223 92.5764 9.8844C92.5764 9.86295 92.5965 9.84276 92.6203 9.79607C92.7019 9.84402 92.7872 9.88566 92.8638 9.94119C93.7097 10.5494 94.6421 10.9558 95.6725 11.0933C96.4155 11.1918 97.166 11.2107 97.8914 10.9533C98.6005 10.7009 98.992 10.1873 98.9995 9.50835C99.0058 8.95436 98.7987 8.49375 98.3243 8.20477C97.9654 7.9852 97.5776 7.80474 97.1861 7.64952C96.5033 7.37821 95.8043 7.14854 95.119 6.88606C94.4627 6.63367 93.849 6.30557 93.3507 5.79197C93.0596 5.49163 92.8286 5.15091 92.6969 4.75214C92.1258 3.02834 92.6015 1.18719 94.6145 0.379554C95.5131 0.0199039 96.4481 -0.0570737 97.4057 0.0375709C98.3218 0.12843 99.1865 0.371982 100.005 0.801038C100.26 0.934802 100.366 1.09002 100.352 1.38405C100.329 1.93425 100.345 2.48571 100.345 3.12803Z" fill="#8E8E8E"/>
<path d="M79.8203 9.80243C79.9408 9.88572 80.0613 9.97153 80.183 10.0536C81.4292 10.894 82.7985 11.2612 84.2957 11.1224C84.7073 11.0846 85.0989 10.9659 85.4616 10.7527C86.3765 10.2126 86.3464 8.82949 85.6185 8.31083C85.2872 8.07485 84.9157 7.88051 84.5392 7.72656C83.859 7.44893 83.1524 7.23693 82.4747 6.95552C81.9814 6.75235 81.4945 6.51637 81.0427 6.23496C79.1614 5.06263 78.997 1.70085 81.4443 0.524727C82.3341 0.0969325 83.2741 -0.0431416 84.2442 0.0111214C85.2621 0.0679082 86.2397 0.300103 87.1421 0.797303C87.2299 0.845257 87.3253 0.8869 87.3956 0.953783C87.4533 1.00678 87.5123 1.09386 87.5136 1.16705C87.5224 1.8018 87.5186 2.43529 87.5186 3.13566C87.3542 3.02966 87.2412 2.96151 87.1321 2.88706C86.0377 2.13495 84.8391 1.75006 83.5025 1.84723C83.126 1.87499 82.7683 1.96585 82.4257 2.13243C81.4067 2.6271 81.4142 4.05434 82.2701 4.57552C82.5663 4.75598 82.8863 4.90362 83.2101 5.02855C83.9531 5.31627 84.7124 5.56487 85.4516 5.86269C85.877 6.03431 86.2975 6.23874 86.6802 6.48861C87.8323 7.24072 88.2377 8.3651 88.1549 9.69391C88.0695 11.0543 87.3404 11.9704 86.1318 12.5257C85.4779 12.826 84.7839 12.9573 84.066 12.9875C82.8524 13.0368 81.6802 12.8651 80.5645 12.3692C80.3374 12.2682 80.1165 12.1484 79.9082 12.0133C79.8266 11.9603 79.7412 11.8417 79.74 11.7509C79.7249 11.1148 79.7325 10.4776 79.7325 9.84029C79.7613 9.82641 79.7902 9.81505 79.8203 9.80243Z" fill="#8E8E8E"/>
<path d="M28.6621 9.74924C28.8491 9.87922 28.9608 9.9562 29.0725 10.0332C30.1066 10.7424 31.2474 11.1361 32.5025 11.1651C33.0384 11.1777 33.5717 11.1298 34.0788 10.919C34.6573 10.6793 35.0238 10.2717 35.079 9.63314C35.1355 8.9883 34.887 8.47343 34.3222 8.1529C33.9671 7.95099 33.5881 7.78315 33.2065 7.63425C32.5338 7.3705 31.8498 7.13957 31.1746 6.88214C30.6726 6.69032 30.197 6.44172 29.7728 6.10605C29.0223 5.51294 28.6445 4.72802 28.5755 3.77905C28.4199 1.64891 29.7941 0.539678 31.3742 0.178766C33.0283 -0.199813 34.6134 0.0475252 36.1219 0.82866C36.3642 0.953591 36.4646 1.11259 36.4533 1.38643C36.4344 1.83694 36.4495 2.28745 36.447 2.73922C36.447 2.84775 36.4319 2.95501 36.4194 3.12537C36.2638 3.02568 36.1496 2.95754 36.0416 2.88308C34.9799 2.15621 33.8165 1.77637 32.5213 1.8483C32.1059 1.87101 31.7055 1.9543 31.3365 2.15369C30.379 2.67108 30.2911 3.95446 31.1872 4.57154C31.4708 4.76714 31.8009 4.90469 32.1234 5.02962C32.8074 5.29589 33.5102 5.51799 34.1892 5.79688C34.6824 5.99879 35.1782 6.22215 35.625 6.50987C36.5738 7.12064 37.0394 8.02923 37.0845 9.15739C37.1021 9.59655 37.0896 10.0319 36.9616 10.4597C36.6629 11.4503 35.999 12.1065 35.0828 12.5267C34.3938 12.8435 33.6634 12.9747 32.9078 12.9987C31.8498 13.0328 30.8195 12.8952 29.828 12.5154C29.5845 12.422 29.3536 12.2946 29.1139 12.1911C28.7851 12.0497 28.6182 11.8453 28.6521 11.4453C28.696 10.9127 28.6621 10.3739 28.6621 9.74924Z" fill="#8E8E8E"/>
<path d="M40.2509 22.254C40.1317 22.1733 40.0112 22.0925 39.8907 22.0118C38.844 21.3114 37.7019 20.9454 36.4331 21.0148C36.0428 21.0363 35.6701 21.1208 35.3137 21.2811C34.2569 21.7543 34.2532 23.1954 35.143 23.7242C35.409 23.8819 35.6939 24.017 35.9838 24.1268C36.7281 24.4107 37.4848 24.6643 38.2278 24.9533C38.6093 25.1022 38.9871 25.2751 39.3385 25.4846C40.6512 26.2695 41.1181 27.5075 40.9324 29.0167C40.8043 30.0578 40.227 30.8137 39.3335 31.3362C38.662 31.7286 37.9253 31.9166 37.1635 31.9734C35.7479 32.0782 34.3799 31.8725 33.0986 31.2201C32.9329 31.1355 32.7773 31.032 32.6329 30.9462C32.6329 30.2332 32.6329 29.5518 32.6329 28.8224C32.771 28.9133 32.8726 28.9763 32.9718 29.0458C34.0047 29.7575 35.1442 30.1537 36.3992 30.184C36.9351 30.1966 37.4685 30.1512 37.9755 29.9417C38.5403 29.7083 38.9068 29.3158 38.967 28.6912C39.0298 28.0425 38.7687 27.5352 38.2077 27.2147C37.8739 27.0241 37.5175 26.8677 37.1585 26.7289C36.5436 26.4903 35.9123 26.2922 35.2998 26.0474C34.8844 25.8821 34.4728 25.6953 34.0888 25.4669C32.9065 24.764 32.4171 23.6838 32.5125 22.3323C32.6179 20.8293 33.5089 19.9195 34.8669 19.5005C36.6615 18.9453 38.4123 19.1686 40.0727 20.0583C40.2095 20.1315 40.3237 20.2059 40.3199 20.394C40.3099 20.982 40.3124 21.5713 40.3086 22.1594C40.3099 22.1796 40.286 22.1998 40.2509 22.254Z" fill="#8E8E8E"/>
<path d="M44.6748 12.7984C43.9896 12.7984 43.3445 12.7984 42.7044 12.7984C42.6166 12.5157 42.5789 1.01698 42.6593 0.290111C42.9153 0.205562 44.2042 0.186633 44.6748 0.264872C44.6748 4.42545 44.6748 8.58982 44.6748 12.7984Z" fill="#8E8E8E"/>
<path d="M8.41235 31.741C8.41235 27.6574 8.41235 23.5675 8.41235 19.4397C9.08253 19.393 9.73514 19.412 10.3802 19.4271C10.4731 19.7199 10.5057 31.158 10.4241 31.7195C10.1556 31.823 8.82525 31.8407 8.41235 31.741Z" fill="#8E8E8E"/>
<path d="M46.5222 19.4424C47.2037 19.4424 47.8563 19.4424 48.5278 19.4424C48.5278 23.5601 48.5278 27.6487 48.5278 31.7702C47.8626 31.8244 47.2213 31.8055 46.5385 31.7828C46.5235 31.6326 46.4984 31.5014 46.4984 31.3701C46.4958 27.525 46.4958 23.6799 46.4971 19.8348C46.4971 19.7137 46.5122 19.5913 46.5222 19.4424Z" fill="#8E8E8E"/>
</svg>
