<svg width="24" height="24" viewBox="0 0 24 24" fill="none" xmlns="http://www.w3.org/2000/svg">
<g clip-path="url(#clip0_1180_2970)">
<path d="M11.9896 0.45752C5.50607 0.45752 0.231689 5.7319 0.231689 12.2154C0.231689 18.6989 5.50607 23.9733 11.9896 23.9733C18.4731 23.9733 23.7475 18.6989 23.7475 12.2154C23.7475 5.7319 18.4731 0.45752 11.9896 0.45752ZM15.2509 7.43121C15.2509 7.52925 15.1725 7.60767 15.0745 7.60767H13.6627C13.3163 7.60767 13.0353 7.88871 13.0353 8.23511V9.71874H15.0483C15.1529 9.71874 15.2313 9.81024 15.2248 9.90827L15.0483 11.9932C15.0418 12.0847 14.9634 12.1566 14.8719 12.1566H13.0353V19.0845C13.0353 19.1826 12.9569 19.261 12.8588 19.261H10.3295C10.2314 19.261 10.153 19.1826 10.153 19.0845V12.2677V12.1566H8.88508C8.78704 12.1566 8.70861 12.0782 8.70861 11.9801V9.8952C8.70861 9.79716 8.78704 9.71874 8.88508 9.71874H10.153V7.70571C10.153 6.30052 11.2902 5.16982 12.6889 5.16982H15.081C15.179 5.16982 15.2575 5.24825 15.2575 5.34629V7.43121H15.2509Z" fill="#8B0ABE"/>
</g>
<defs>
<clipPath id="clip0_1180_2970">
<rect width="23.5158" height="23.5158" fill="white" transform="translate(0.231689 0.45752)"/>
</clipPath>
</defs>
</svg>
