<svg width="24" height="24" viewBox="0 0 24 24" fill="none" xmlns="http://www.w3.org/2000/svg">
<path fill-rule="evenodd" clip-rule="evenodd" d="M11.7541 23.9713C18.1927 23.9713 23.4123 18.7076 23.4123 12.2144C23.4123 5.72126 18.1927 0.45752 11.7541 0.45752C5.3154 0.45752 0.0958252 5.72126 0.0958252 12.2144C0.0958252 18.7076 5.3154 23.9713 11.7541 23.9713ZM14.4574 5.88403H9.04904C7.07881 5.88403 5.47571 7.50041 5.47571 9.4876V14.9417C5.47571 16.9286 7.07881 18.5453 9.04904 18.5453H14.4574C16.4276 18.5453 18.0307 16.9289 18.0307 14.9417V9.4876C18.0307 7.50041 16.4276 5.88403 14.4574 5.88403ZM16.9547 14.9417C16.9547 16.3302 15.8345 17.4602 14.4574 17.4602H9.04904C7.6719 17.4602 6.55175 16.3302 6.55175 14.9417V9.4876C6.55175 8.09881 7.6719 6.96947 9.04904 6.96947H14.4574C15.8345 6.96947 16.9547 8.09909 16.9547 9.4876V14.9417ZM11.7536 8.9726C9.98086 8.9726 8.53883 10.4271 8.53883 12.2145C8.53883 14.0023 9.98086 15.4565 11.7536 15.4565C13.526 15.4565 14.9683 14.0023 14.9683 12.2145C14.9683 10.4271 13.526 8.9726 11.7536 8.9726ZM11.7536 14.3711C10.5742 14.3711 9.61487 13.4036 9.61487 12.2143C9.61487 11.0252 10.5742 10.0577 11.7536 10.0577C12.9326 10.0577 13.892 11.0252 13.892 12.2143C13.892 13.4036 12.9326 14.3711 11.7536 14.3711ZM14.333 8.78764C14.333 8.35714 14.679 8.00814 15.1056 8.00814C15.5322 8.00814 15.8783 8.35714 15.8783 8.78764C15.8783 9.21785 15.5322 9.56655 15.1056 9.56655C14.679 9.56655 14.333 9.21785 14.333 8.78764Z" fill="#8B0ABE"/>
</svg>
