<svg width="24" height="24" viewBox="0 0 24 24" fill="none" xmlns="http://www.w3.org/2000/svg">
<g clip-path="url(#clip0_1180_2964)">
<path d="M12.9419 10.859V10.8342C12.9356 10.8404 12.9292 10.8528 12.9229 10.859H12.9419Z" fill="#8B0ABE"/>
<path d="M11.7579 0.45752C5.27665 0.45752 0 5.73417 0 12.2154C0 18.6966 5.27665 23.9733 11.7579 23.9733C18.2391 23.9733 23.5158 18.6966 23.5158 12.2154C23.5158 5.73417 18.2391 0.45752 11.7579 0.45752ZM8.81842 17.4986C8.81842 17.6099 8.73331 17.695 8.62201 17.695H6.35685C6.24556 17.695 6.16045 17.6099 6.16045 17.4986V9.89133C6.16045 9.78003 6.24556 9.69492 6.35685 9.69492H8.62201C8.73331 9.69492 8.81842 9.78003 8.81842 9.89133V17.4986V17.4986ZM7.41087 8.68019C6.62527 8.68019 5.99024 8.04515 5.99024 7.25955C5.99024 6.47394 6.62527 5.83891 7.41087 5.83891C8.19648 5.83891 8.83151 6.47394 8.83151 7.25955C8.83151 8.04515 8.19648 8.68019 7.41087 8.68019ZM18.4028 17.4986C18.4028 17.6099 18.3177 17.695 18.2064 17.695H15.9412C15.8299 17.695 15.7448 17.6099 15.7448 17.4986V13.4135C15.7448 12.3398 15.3586 11.6066 14.3962 11.6066C13.663 11.6066 13.2244 12.0976 13.0345 12.582C12.9625 12.7522 12.9494 12.9879 12.9494 13.2301V17.4986C12.9494 17.6099 12.8643 17.695 12.753 17.695H10.4878C10.3765 17.695 10.2914 17.6099 10.2914 17.4986C10.298 16.4118 10.3176 11.1352 10.298 9.89787C10.298 9.78658 10.3831 9.70147 10.4944 9.70147H12.753C12.8643 9.70147 12.9494 9.78658 12.9494 9.89787V10.8341C13.3029 10.2907 13.9314 9.51162 15.3455 9.51162C17.0935 9.51162 18.4093 10.6573 18.4093 13.1123V17.4986H18.4028Z" fill="#8B0ABE"/>
</g>
<defs>
<clipPath id="clip0_1180_2964">
<rect width="23.5158" height="23.5158" fill="white" transform="translate(0 0.45752)"/>
</clipPath>
</defs>
</svg>
