<svg width="24" height="24" viewBox="0 0 24 24" fill="none" xmlns="http://www.w3.org/2000/svg">
<path d="M24.0004 12.0735C24.0004 18.4913 18.7869 23.6894 12.3614 23.6856C5.94354 23.6856 0.760803 18.4682 0.764651 12.0157C0.768498 5.65949 5.99355 0.457522 12.3806 0.457522C18.7869 0.453674 24.0004 5.66719 24.0004 12.0735ZM18.683 8.1412C18.6099 8.12581 18.5599 8.11042 18.5098 8.10657C17.5479 7.9796 16.7592 7.52558 16.1051 6.82147C15.7203 6.40978 15.4048 5.95191 15.147 5.45557C15.0893 5.34399 15.0239 5.30166 14.8969 5.30166C14.2544 5.30936 13.6157 5.30551 12.9731 5.30551C12.7153 5.30551 12.7153 5.30551 12.7153 5.5633C12.7153 8.44901 12.7153 11.3347 12.7153 14.2204C12.7153 14.3359 12.7076 14.4513 12.6961 14.5667C12.6076 15.4555 11.9458 16.2058 11.0801 16.4097C10.199 16.6213 9.27557 16.252 8.78308 15.4978C8.29443 14.7476 8.32906 13.7472 8.86772 13.0469C9.29865 12.4852 9.87195 12.212 10.5761 12.1927C10.8492 12.185 11.1224 12.1927 11.3995 12.1927C11.3995 11.3924 11.3995 10.6229 11.3995 9.84185C11.007 9.84185 10.6299 9.8303 10.2529 9.8457C10.0374 9.85339 9.81808 9.89187 9.60646 9.94189C7.21325 10.4921 5.71653 12.7314 6.15516 15.1516C6.58224 17.5255 8.80231 19.13 11.1878 18.7914C13.4772 18.4682 15.0739 16.5906 15.0778 14.282C15.0778 12.5813 15.0778 10.8846 15.0778 9.18391C15.0778 9.1185 15.0778 9.04924 15.0778 8.93766C15.9704 9.8303 17.0362 10.2458 18.2367 10.4113C18.3829 9.65716 18.5329 8.91072 18.683 8.1412Z" fill="#8B0ABE"/>
</svg>
