<svg width="25" height="24" viewBox="0 0 25 24" fill="none" xmlns="http://www.w3.org/2000/svg">
<g clip-path="url(#clip0_1180_2968)">
<path d="M12.4241 0.45752C5.94064 0.45752 0.66626 5.7319 0.66626 12.2154C0.66626 18.6989 5.94064 23.9733 12.4241 23.9733C18.9077 23.9733 24.182 18.6989 24.182 12.2154C24.182 5.7319 18.9077 0.45752 12.4241 0.45752ZM19.2344 7.93446C19.2344 7.96714 19.241 8.05864 19.1691 8.15015C18.8488 8.58151 18.509 8.96712 18.0776 9.28737C18.0122 9.33312 17.9077 9.38541 17.9077 9.47038C17.9077 11.7318 17.326 13.9997 15.679 15.6336C13.5744 17.7251 10.4242 18.2872 7.62688 17.5159C7.08441 17.3656 6.56808 17.1565 6.07136 16.895C5.90796 16.8035 5.74457 16.712 5.58771 16.6075C5.5485 16.5748 5.51582 16.5421 5.5485 16.5225C5.58117 16.5029 5.60732 16.5029 5.7315 16.5225C6.51579 16.6009 7.31969 16.4833 8.06478 16.2218C8.46999 16.0781 9.34579 15.7905 9.60069 15.4114C9.60722 15.4049 9.61376 15.4049 9.62029 15.3918C9.51572 15.3657 9.41768 15.3657 9.31311 15.3526C8.55496 15.1369 7.53538 14.7513 7.0648 13.4703C7.03212 13.3984 7.0648 13.3592 7.14323 13.3722C7.77066 13.418 7.99288 13.3853 8.2151 13.3396C8.09092 13.32 7.96674 13.2742 7.85563 13.2285C6.88833 12.8755 6.189 11.9409 6.05829 10.9279C6.04522 10.8102 6.03214 10.7122 6.03868 10.6011C6.04522 10.5292 6.07789 10.503 6.14325 10.5422C6.63344 10.7971 7.18898 10.856 7.23473 10.8494C7.11055 10.7514 6.99944 10.6468 6.88833 10.5422C6.05829 9.75795 5.73803 8.15668 6.39815 7.15671C6.45044 7.07828 6.48965 7.07828 6.55501 7.15017C8.07785 8.88215 9.94708 9.69259 12.2019 10.0259C12.2608 10.0325 12.2673 10.0259 12.2608 9.96056C12.2019 9.56188 12.1954 9.17626 12.2934 8.77758C12.3915 8.37236 12.5875 7.98675 12.849 7.65996C13.1039 7.34624 13.4241 7.08481 13.7836 6.89527C14.1431 6.70574 14.5417 6.59463 14.9404 6.56848C15.3587 6.54234 15.777 6.6077 16.1626 6.76456C16.4567 6.8822 16.7182 7.0456 16.96 7.25474C17.0123 7.29396 17.058 7.34624 17.1038 7.39853C17.1365 7.43121 17.1691 7.43774 17.2149 7.43121C17.79 7.28742 18.3325 7.08481 18.8619 6.80377C18.888 6.7907 18.9077 6.78417 18.9338 6.79724C18.9599 6.81684 18.9469 6.84299 18.9338 6.86913C18.8423 7.17631 18.6724 7.45735 18.4698 7.70571C18.339 7.86911 18.0122 8.27433 17.7835 8.307C18.2541 8.22858 18.7312 8.11093 19.1691 7.91486C19.2279 7.88871 19.2214 7.87564 19.2214 7.91486C19.2344 7.92139 19.2344 7.92793 19.2344 7.93446Z" fill="#8B0ABE"/>
</g>
<defs>
<clipPath id="clip0_1180_2968">
<rect width="23.5158" height="23.5158" fill="white" transform="translate(0.666016 0.45752)"/>
</clipPath>
</defs>
</svg>
